<?xml version="1.0" encoding="iso-8859-1"?>
<!-- Uploaded to: SVG Repo, www.svgrepo.com, Generator: SVG Repo Mixer Tools -->
<svg height="800px" width="800px" version="1.1" id="Capa_1" xmlns="http://www.w3.org/2000/svg" xmlns:xlink="http://www.w3.org/1999/xlink" 
	 viewBox="0 0 392 392" xml:space="preserve">
<g>
	<g>
		<path style="fill:#D4B783;" d="M325.92,168.018c-0.008-0.007-18.834-16.514-71.825-9.549c-4.637,3.618-8.856,7.794-12.523,12.459
			c-1.973,2.51-4.906,3.82-7.869,3.82c-2.163,0-4.341-0.698-6.173-2.138c-2.935-2.307-4.223-5.926-3.701-9.371
			c0.251-1.652,0.912-3.264,2.018-4.671c5.657-7.197,12.348-13.482,19.773-18.692c-16.709-14.292-38.189-22.442-60.526-22.442
			c-26.078,0-50.99,11.104-68.501,30.127C107.68,162.114,103,178.71,103,196c0,6.315,0.636,12.625,1.89,18.753
			c1.107,5.411-2.381,10.694-7.792,11.802c-0.676,0.139-1.351,0.205-2.015,0.205c-0.535,0-1.062-0.048-1.581-0.132
			c-3.986-0.643-7.349-3.676-8.206-7.866C83.772,211.318,83,203.659,83,196c0-13.597,2.404-26.837,7.03-39.286
			c-3.005,0.276-7.228,0.721-7.935,0.721c-20.519,0-39.076,8.522-52.351,22.198C23.559,190.349,20,202.763,20,216
			c0,40.252,32.748,73,73,73h206c20.519,0,39.076-8.522,52.351-22.198c6.185-10.716,9.745-23.13,9.745-36.367
			C361.095,204.019,346.992,180.835,325.92,168.018z M210.762,186.551c0.538-1.613,1.45-2.995,2.604-4.087
			c2.594-2.456,6.421-3.44,10.047-2.234c3.056,1.019,5.283,3.375,6.269,6.198c0.704,2.017,0.781,4.27,0.052,6.453
			C227.256,200.307,226,208.085,226,216c0,5.523-4.477,10-10,10c-5.523,0-10-4.477-10-10
			C206,205.93,207.602,196.021,210.762,186.551z"/>
	</g>
	<g>
		<path d="M299,123c-5.231,0-10.47,0.445-15.646,1.328C261.98,98.336,229.795,83,196,83s-65.98,15.336-87.354,41.328
			C103.47,123.445,98.231,123,93,123c-51.28,0-93,41.72-93,93s41.72,93,93,93h206c51.28,0,93-41.72,93-93S350.28,123,299,123z
			 M351.351,266.802C338.076,280.478,319.519,289,299,289H93c-40.252,0-73-32.748-73-73c0-13.237,3.559-25.651,9.744-36.367
			C42.368,157.762,65.985,143,93,143c1.049,0,2.099,0.031,3.148,0.077c-2.351,4.417-4.385,8.974-6.118,13.637
			C85.404,169.163,83,182.403,83,196c0,7.659,0.772,15.318,2.296,22.763c0.857,4.19,4.22,7.222,8.206,7.866
			c0.518,0.084,1.046,0.132,1.581,0.132c0.664,0,1.339-0.066,2.015-0.205c5.411-1.107,8.899-6.391,7.792-11.802
			C103.636,208.625,103,202.315,103,196c0-17.29,4.68-33.886,13.594-48.438c1.292-2.108,2.67-4.175,4.138-6.193
			c0.025-0.033,0.052-0.063,0.076-0.097C138.285,117.307,166.394,103,196,103c24.913,0,48.764,10.132,66.113,27.623
			c-5.794,2.514-11.32,5.625-16.492,9.253c-7.426,5.209-14.116,11.495-19.773,18.692c-1.106,1.407-1.768,3.02-2.018,4.671
			c-0.523,3.445,0.766,7.064,3.701,9.371c1.832,1.439,4.01,2.138,6.173,2.138c2.962,0,5.896-1.311,7.869-3.82
			c3.667-4.665,7.886-8.841,12.523-12.459c8.03-6.265,17.32-10.846,27.224-13.309c0.107-0.022,0.215-0.04,0.321-0.066
			C287.337,143.704,293.178,143,299,143c40.252,0,73,32.748,73,73C372,235.733,364.117,253.65,351.351,266.802z"/>
		<path d="M216,226c5.523,0,10-4.477,10-10c0-7.915,1.256-15.693,3.734-23.119c0.728-2.183,0.652-4.437-0.052-6.453
			c-0.986-2.823-3.213-5.179-6.269-6.198c-3.626-1.207-7.453-0.222-10.047,2.234c-1.154,1.092-2.066,2.474-2.604,4.087
			C207.602,196.021,206,205.93,206,216C206,221.523,210.477,226,216,226z"/>
	</g>
</g>
</svg>