<?xml version="1.0" encoding="UTF-8" standalone="no"?>
<!DOCTYPE svg PUBLIC "-//W3C//DTD SVG 1.1//EN" "http://www.w3.org/Graphics/SVG/1.1/DTD/svg11.dtd">
<svg width="100%" height="100%" viewBox="0 0 2512 846" version="1.1" xmlns="http://www.w3.org/2000/svg" xmlns:xlink="http://www.w3.org/1999/xlink" xml:space="preserve" xmlns:serif="http://www.serif.com/" style="fill-rule:evenodd;clip-rule:evenodd;stroke-linejoin:round;stroke-miterlimit:2;">
    <g transform="matrix(1,0,0,1,-2048.63,-2113.63)">
        <g transform="matrix(8.33333,0,0,8.33333,0,0)">
            <g transform="matrix(1,0,0,1,284.347,291.438)">
                <path d="M0,24.761C1.691,22.427 2.537,19.924 2.537,17.251C2.537,16.507 2.469,15.746 2.334,14.968C1.726,11.383 0.102,8.237 -2.537,5.531C-5.175,2.824 -8.44,1.251 -12.33,0.811C-13.785,3.247 -14.892,5.852 -15.653,8.625C-16.414,11.4 -16.795,13.819 -16.795,15.881C-16.795,17.032 -16.711,18.182 -16.541,19.331C-16.034,22.546 -14.359,25.099 -11.518,26.993C-10.131,27.839 -8.66,28.262 -7.104,28.262C-4.229,28.262 -1.86,27.095 0,24.761M-24.71,61.801C-24.947,61.531 -25.065,61.159 -25.065,60.685C-24.998,59.739 -24.491,59.264 -23.543,59.264L-23.391,59.264C-21.497,59.4 -19.62,59.467 -17.759,59.467C-10.791,59.467 -4.144,58.47 2.182,56.474C1.708,56.136 1.472,55.696 1.472,55.155C1.606,48.22 2.512,41.404 4.187,34.706C5.861,28.008 8.017,21.7 10.656,15.781C14.004,8.372 17.649,2.004 21.59,-3.324C25.531,-8.652 29.227,-12.448 32.677,-14.715C32.947,-14.884 33.235,-14.969 33.54,-14.969C34.047,-14.969 34.47,-14.732 34.808,-14.259C34.977,-13.988 35.062,-13.717 35.062,-13.447C35.062,-12.905 34.825,-12.465 34.352,-12.127C31.104,-9.996 27.62,-6.385 23.899,-1.294C20.177,3.797 16.694,9.894 13.446,16.997C7.729,29.819 4.77,42.554 4.567,55.205C4.567,55.375 4.533,55.56 4.465,55.763C13.666,52.449 21.953,47.721 29.328,41.581C36.702,35.442 42.978,28.617 48.153,21.108C53.734,13.057 57.81,5.108 60.381,-2.74C62.275,-8.525 63.223,-13.734 63.223,-18.368C63.223,-24.525 61.565,-29.024 58.25,-31.865C55.814,-33.928 53.278,-35.205 50.639,-35.696C48,-36.186 45.683,-36.432 43.688,-36.432C42.334,-36.432 40.964,-36.347 39.578,-36.178C33.861,-35.468 28.254,-33.776 22.757,-31.104C17.26,-28.432 12.093,-25.15 7.256,-21.26C-0.829,-14.63 -7.154,-7.628 -11.721,-0.254C-7.73,0.253 -4.161,1.953 -1.015,4.845C2.131,7.738 3.991,10.427 4.567,12.913C5.142,15.399 5.429,17.133 5.429,18.115C5.429,21.024 4.431,23.865 2.436,26.638C-0.101,29.784 -3.281,31.357 -7.104,31.357C-9.201,31.357 -11.231,30.782 -13.192,29.632C-16.609,27.331 -18.469,25.066 -18.774,22.833C-19.078,20.601 -19.23,18.96 -19.23,17.911C-19.23,15.475 -18.824,12.989 -18.013,10.452C-16.795,6.833 -15.341,3.602 -13.649,0.761C-18.622,0.761 -23.561,1.894 -28.465,4.16C-31.679,5.682 -34.724,7.594 -37.599,9.894C-37.7,9.962 -37.801,9.995 -37.903,9.995C-38.309,9.995 -38.512,9.792 -38.512,9.386C-38.512,9.252 -38.444,9.133 -38.309,9.032C-35.366,6.664 -32.254,4.702 -28.973,3.145C-23.933,0.744 -19.027,-0.457 -14.258,-0.457L-12.989,-0.406C-8.355,-8.051 -1.844,-15.306 6.546,-22.174C19.333,-32.593 32.626,-37.802 46.428,-37.802C48.084,-37.802 49.708,-37.717 51.299,-37.548C54.985,-37.142 58.14,-35.865 60.762,-33.718C63.383,-31.569 65.1,-28.144 65.912,-23.443C66.148,-21.819 66.267,-20.127 66.267,-18.368C66.267,-13.396 65.286,-7.882 63.324,-1.827C60.651,6.325 56.44,14.562 50.69,22.884C45.446,30.494 39.096,37.429 31.637,43.687C24.178,49.946 16.229,54.656 7.789,57.819C-0.651,60.982 -9.116,62.563 -17.606,62.563C-21.903,62.563 -24.271,62.309 -24.71,61.801" style="fill:rgb(35,31,32);fill-rule:nonzero;"/>
            </g>
        </g>
        <g transform="matrix(8.33333,0,0,8.33333,0,0)">
            <g transform="matrix(1,0,0,1,347.875,330.05)">
                <path d="M0,-5.428C1.319,-6.713 1.979,-7.813 1.979,-8.726C1.979,-9.368 1.624,-9.691 0.913,-9.691C0.642,-9.691 0.287,-9.64 -0.152,-9.538C-2.216,-8.929 -4.043,-7.541 -5.632,-5.377C-6.715,-3.956 -7.273,-2.417 -7.307,-0.76C-4.871,-1.909 -2.436,-3.466 0,-5.428M-3.4,7.054C-5.802,6.547 -7.696,5.38 -9.083,3.553C-10.03,2.133 -10.503,0.678 -10.503,-0.811C-10.503,-2.975 -9.709,-5.106 -8.119,-7.204C-6.056,-9.944 -3.688,-11.702 -1.015,-12.481C0.236,-12.819 1.251,-12.989 2.029,-12.989C3.653,-12.989 4.465,-12.261 4.465,-10.806C4.465,-10.198 4.279,-9.488 3.907,-8.675C3.196,-7.187 2.147,-5.817 0.761,-4.566C-1.776,-2.468 -4.398,-0.793 -7.104,0.458C-6.969,0.831 -6.799,1.202 -6.596,1.574C-5.378,3.672 -4.051,4.999 -2.613,5.557C-1.176,6.115 0.304,6.394 1.827,6.394C2.401,6.394 2.994,6.361 3.603,6.293C4.888,6.191 6.19,5.989 7.509,5.684C11.128,4.906 14.596,3.773 17.911,2.285C21.226,0.797 23.864,-0.641 25.827,-2.029C25.928,-2.096 26.03,-2.13 26.131,-2.13C26.334,-2.13 26.478,-2.071 26.563,-1.952C26.646,-1.833 26.689,-1.706 26.689,-1.572C26.689,-1.368 26.621,-1.217 26.486,-1.115C24.49,0.34 21.784,1.828 18.368,3.35C13.327,5.617 8.389,6.987 3.552,7.46C2.875,7.528 2.198,7.561 1.522,7.561C-0.068,7.561 -1.708,7.392 -3.4,7.054" style="fill:rgb(35,31,32);fill-rule:nonzero;"/>
            </g>
        </g>
        <g transform="matrix(8.33333,0,0,8.33333,0,0)">
            <g transform="matrix(1,0,0,1,389.481,296.106)">
                <path d="M0,19.382C7.746,11.974 14.664,4.144 20.753,-4.11C24.033,-8.677 26.215,-12.719 27.298,-16.237C27.501,-17.015 27.603,-17.76 27.603,-18.47C27.603,-21.616 26.08,-23.189 23.036,-23.189C20.566,-22.986 17.657,-21.226 14.309,-17.911C9.81,-13.48 5.369,-7.654 0.989,-0.431C-3.392,6.791 -6.951,14.022 -9.691,21.26C-10.909,24.541 -11.857,27.586 -12.533,30.393C-9.218,27.856 -5.041,24.186 0,19.382M-10.047,45.717C-12.652,45.717 -14.495,44.499 -15.578,42.064C-16.118,40.575 -16.389,38.85 -16.389,36.888C-16.389,32.457 -15.121,26.892 -12.584,20.195C-9.742,12.753 -6.081,5.327 -1.599,-2.081C2.883,-9.489 7.476,-15.51 12.178,-20.144C16.169,-24.068 19.822,-26.132 23.138,-26.335C25.979,-26.199 27.653,-25.32 28.161,-23.696C28.668,-22.073 28.922,-20.685 28.922,-19.535C28.922,-15.51 26.503,-10.131 21.666,-3.4C15.543,4.888 8.592,12.753 0.812,20.195C-4.871,25.641 -9.438,29.615 -12.888,32.118C-13.294,34.013 -13.497,35.688 -13.497,37.142C-13.497,38.529 -13.312,39.713 -12.939,40.694C-11.958,42.994 -10.884,44.153 -9.717,44.169C-8.55,44.187 -7.899,44.195 -7.764,44.195C-4.516,44.195 -0.406,42.774 4.566,39.933L4.922,39.73C8.744,37.699 12.448,35.112 16.034,31.966C16.136,31.864 16.236,31.814 16.338,31.814C16.574,31.814 16.744,31.873 16.846,31.991C16.947,32.111 16.98,32.237 16.947,32.372C16.947,32.542 16.896,32.694 16.795,32.828C13.142,36.043 9.369,38.681 5.479,40.744C3.822,41.657 1.548,42.706 -1.345,43.89C-4.237,45.074 -6.394,45.684 -7.814,45.717L-10.047,45.717Z" style="fill:rgb(35,31,32);fill-rule:nonzero;"/>
            </g>
        </g>
        <g transform="matrix(8.33333,0,0,8.33333,0,0)">
            <g transform="matrix(1,0,0,1,416.069,330.05)">
                <path d="M0,-5.428C1.319,-6.713 1.979,-7.813 1.979,-8.726C1.979,-9.368 1.624,-9.691 0.914,-9.691C0.643,-9.691 0.287,-9.64 -0.152,-9.538C-2.216,-8.929 -4.042,-7.541 -5.632,-5.377C-6.715,-3.956 -7.273,-2.417 -7.307,-0.76C-4.871,-1.909 -2.436,-3.466 0,-5.428M-3.399,7.054C-5.802,6.547 -7.695,5.38 -9.082,3.553C-10.029,2.133 -10.503,0.678 -10.503,-0.811C-10.503,-2.975 -9.709,-5.106 -8.118,-7.204C-6.056,-9.944 -3.688,-11.702 -1.015,-12.481C0.236,-12.819 1.251,-12.989 2.03,-12.989C3.653,-12.989 4.466,-12.261 4.466,-10.806C4.466,-10.198 4.279,-9.488 3.907,-8.675C3.197,-7.187 2.148,-5.817 0.762,-4.566C-1.775,-2.468 -4.397,-0.793 -7.104,0.458C-6.969,0.831 -6.799,1.202 -6.596,1.574C-5.378,3.672 -4.051,4.999 -2.613,5.557C-1.176,6.115 0.305,6.394 1.827,6.394C2.401,6.394 2.994,6.361 3.603,6.293C4.888,6.191 6.19,5.989 7.51,5.684C11.129,4.906 14.596,3.773 17.912,2.285C21.227,0.797 23.865,-0.641 25.827,-2.029C25.929,-2.096 26.03,-2.13 26.132,-2.13C26.335,-2.13 26.479,-2.071 26.563,-1.952C26.646,-1.833 26.689,-1.706 26.689,-1.572C26.689,-1.368 26.621,-1.217 26.486,-1.115C24.49,0.34 21.784,1.828 18.368,3.35C13.327,5.617 8.389,6.987 3.552,7.46C2.875,7.528 2.199,7.561 1.522,7.561C-0.067,7.561 -1.708,7.392 -3.399,7.054" style="fill:rgb(35,31,32);fill-rule:nonzero;"/>
            </g>
        </g>
        <g transform="matrix(8.33333,0,0,8.33333,0,0)">
            <g transform="matrix(1,0,0,1,453.009,335.937)">
                <path d="M0,-21.108C-0.475,-21.546 -0.711,-22.072 -0.711,-22.681C-0.711,-23.324 -0.475,-23.865 0,-24.304C0.473,-24.744 1.031,-24.964 1.674,-24.964C2.316,-24.964 2.874,-24.744 3.349,-24.304C3.822,-23.865 4.059,-23.324 4.059,-22.681C4.059,-22.072 3.822,-21.546 3.349,-21.108C2.874,-20.668 2.316,-20.449 1.674,-20.449C1.031,-20.449 0.473,-20.668 0,-21.108M-12.432,-1.725C-12.432,-5.277 -11.197,-8.845 -8.728,-12.431C-7.477,-14.258 -6.038,-15.594 -4.415,-16.44C-4.179,-16.575 -3.941,-16.642 -3.704,-16.642C-3.096,-16.642 -2.639,-16.355 -2.334,-15.78C-2.232,-15.544 -2.183,-15.29 -2.183,-15.019C-2.183,-14.444 -2.47,-14.004 -3.045,-13.7C-4.263,-13.023 -5.379,-11.941 -6.394,-10.453C-7.408,-8.963 -8.187,-7.339 -8.728,-5.582C-9.168,-4.194 -9.388,-2.943 -9.388,-1.827L-9.388,-1.42C-9.388,-0.609 -9.151,0.102 -8.677,0.71C-7.865,1.353 -6.767,1.674 -5.379,1.674C-3.856,1.674 -2.03,1.353 0.102,0.71C1.725,0.203 3.01,-0.254 3.957,-0.66C7.813,-2.351 11.551,-4.753 15.171,-7.865C15.272,-7.966 15.374,-8.017 15.476,-8.017C15.915,-8.017 16.135,-7.814 16.135,-7.408C16.135,-7.272 16.067,-7.137 15.933,-7.003C12.211,-3.788 8.372,-1.319 4.414,0.406C-0.627,2.706 -4.651,3.856 -7.662,3.856C-10.842,3.856 -12.432,1.996 -12.432,-1.725" style="fill:rgb(35,31,32);fill-rule:nonzero;"/>
            </g>
        </g>
        <g transform="matrix(8.33333,0,0,8.33333,0,0)">
            <g transform="matrix(1,0,0,1,466.911,278.856)">
                <path d="M0,58.705C0,53.463 1.522,46.951 4.566,39.17C8.321,29.665 13.361,20.413 19.688,11.415C10.96,8.033 2.486,5.31 -5.733,3.246C-13.953,1.183 -22.038,0.151 -29.987,0.151C-39.459,0.151 -48.88,1.977 -58.25,5.631L-58.402,5.631C-58.808,5.631 -59.011,5.445 -59.011,5.073C-59.011,4.768 -58.893,4.6 -58.656,4.565C-49.083,0.777 -41.844,-1.219 -36.939,-1.422C-32.034,-1.625 -28.973,-1.727 -27.755,-1.727C-20.38,-1.727 -13.022,-0.83 -5.683,0.963C2.842,3.06 11.771,5.902 21.108,9.487C29.227,-1.506 36.854,-8.153 43.992,-10.454L44.397,-10.504C45.176,-10.504 45.683,-10.132 45.92,-9.388C45.953,-9.253 45.971,-9.101 45.971,-8.932C45.971,-8.221 45.599,-7.747 44.854,-7.511C38.461,-5.482 31.526,0.557 24.051,10.603L26.486,11.517C31.695,13.58 37.082,15.433 42.647,17.073C48.211,18.714 52.397,19.534 55.205,19.534L59.519,19.534C65.031,19.534 70.359,18.13 75.502,15.322L75.806,15.271C75.873,15.271 75.949,15.289 76.034,15.322C76.118,15.356 76.194,15.433 76.263,15.551C76.33,15.669 76.364,15.779 76.364,15.88C76.364,16.083 76.263,16.236 76.06,16.337C70.241,19.483 65.802,21.073 62.74,21.107C59.679,21.141 58.08,21.158 57.945,21.158C52.06,21.158 46.14,20.287 40.187,18.544C34.232,16.803 28.381,14.798 22.63,12.532C16.305,21.462 11.247,30.714 7.459,40.287C4.549,47.593 3.095,53.496 3.095,57.995C3.095,64.084 5.919,67.128 11.568,67.128C12.482,67.128 13.463,67.026 14.512,66.824C18.029,66.113 21.445,64.862 24.762,63.069C30.343,60.227 36.871,54.917 44.347,47.137C44.448,47.035 44.583,46.984 44.753,46.984C45.159,46.984 45.362,47.171 45.362,47.542C45.362,47.678 45.312,47.813 45.21,47.948C37.632,55.831 30.985,61.209 25.269,64.084C19.01,67.501 13.632,69.209 9.133,69.209C3.044,69.209 0,65.707 0,58.705" style="fill:rgb(35,31,32);fill-rule:nonzero;"/>
            </g>
        </g>
        <g transform="matrix(8.33333,0,0,8.33333,0,0)">
            <g transform="matrix(1,0,0,1,519.477,330.05)">
                <path d="M0,-5.428C1.319,-6.713 1.979,-7.813 1.979,-8.726C1.979,-9.368 1.624,-9.691 0.914,-9.691C0.643,-9.691 0.287,-9.64 -0.152,-9.538C-2.216,-8.929 -4.042,-7.541 -5.632,-5.377C-6.715,-3.956 -7.273,-2.417 -7.307,-0.76C-4.871,-1.909 -2.436,-3.466 0,-5.428M-3.399,7.054C-5.802,6.547 -7.695,5.38 -9.082,3.553C-10.029,2.133 -10.503,0.678 -10.503,-0.811C-10.503,-2.975 -9.709,-5.106 -8.118,-7.204C-6.056,-9.944 -3.688,-11.702 -1.015,-12.481C0.236,-12.819 1.251,-12.989 2.03,-12.989C3.653,-12.989 4.466,-12.261 4.466,-10.806C4.466,-10.198 4.279,-9.488 3.907,-8.675C3.197,-7.187 2.148,-5.817 0.762,-4.566C-1.775,-2.468 -4.397,-0.793 -7.104,0.458C-6.969,0.831 -6.799,1.202 -6.596,1.574C-5.378,3.672 -4.051,4.999 -2.613,5.557C-1.176,6.115 0.305,6.394 1.827,6.394C2.401,6.394 2.994,6.361 3.603,6.293C4.888,6.191 6.19,5.989 7.51,5.684C11.129,4.906 14.596,3.773 17.912,2.285C21.227,0.797 23.865,-0.641 25.827,-2.029C25.929,-2.096 26.03,-2.13 26.132,-2.13C26.335,-2.13 26.479,-2.071 26.563,-1.952C26.646,-1.833 26.689,-1.706 26.689,-1.572C26.689,-1.368 26.621,-1.217 26.486,-1.115C24.49,0.34 21.784,1.828 18.368,3.35C13.327,5.617 8.389,6.987 3.552,7.46C2.875,7.528 2.199,7.561 1.522,7.561C-0.067,7.561 -1.708,7.392 -3.399,7.054" style="fill:rgb(35,31,32);fill-rule:nonzero;"/>
            </g>
        </g>
        <g transform="matrix(8.33333,0,0,8.33333,0,0)">
            <g transform="matrix(1,0,0,1,285.339,292.565)">
                <path d="M0,24.761C1.691,22.427 2.537,19.924 2.537,17.251C2.537,16.507 2.469,15.746 2.334,14.968C1.726,11.383 0.102,8.237 -2.537,5.531C-5.175,2.824 -8.44,1.251 -12.33,0.811C-13.785,3.247 -14.892,5.852 -15.653,8.625C-16.414,11.4 -16.795,13.819 -16.795,15.881C-16.795,17.032 -16.711,18.182 -16.541,19.331C-16.034,22.546 -14.359,25.099 -11.518,26.993C-10.131,27.839 -8.66,28.262 -7.104,28.262C-4.229,28.262 -1.86,27.095 0,24.761M-24.71,61.801C-24.947,61.531 -25.065,61.159 -25.065,60.685C-24.998,59.739 -24.491,59.264 -23.543,59.264L-23.391,59.264C-21.497,59.4 -19.62,59.467 -17.759,59.467C-10.791,59.467 -4.144,58.47 2.182,56.474C1.708,56.136 1.472,55.696 1.472,55.155C1.606,48.22 2.512,41.404 4.187,34.706C5.861,28.008 8.017,21.7 10.656,15.781C14.004,8.372 17.649,2.004 21.59,-3.324C25.531,-8.652 29.227,-12.448 32.677,-14.715C32.947,-14.884 33.235,-14.969 33.54,-14.969C34.047,-14.969 34.47,-14.732 34.808,-14.259C34.977,-13.988 35.062,-13.717 35.062,-13.447C35.062,-12.905 34.825,-12.465 34.352,-12.127C31.104,-9.996 27.62,-6.385 23.899,-1.294C20.177,3.797 16.694,9.894 13.446,16.997C7.729,29.819 4.77,42.554 4.567,55.205C4.567,55.375 4.533,55.56 4.465,55.763C13.666,52.449 21.953,47.721 29.328,41.581C36.702,35.442 42.978,28.617 48.153,21.108C53.734,13.057 57.81,5.108 60.381,-2.74C62.275,-8.525 63.223,-13.734 63.223,-18.368C63.223,-24.525 61.565,-29.024 58.25,-31.865C55.814,-33.928 53.278,-35.205 50.639,-35.696C48,-36.186 45.683,-36.432 43.688,-36.432C42.334,-36.432 40.964,-36.347 39.578,-36.178C33.861,-35.468 28.254,-33.776 22.757,-31.104C17.26,-28.432 12.093,-25.15 7.256,-21.26C-0.829,-14.63 -7.154,-7.628 -11.721,-0.254C-7.73,0.253 -4.161,1.953 -1.015,4.845C2.131,7.738 3.991,10.427 4.567,12.913C5.142,15.4 5.429,17.133 5.429,18.115C5.429,21.024 4.431,23.865 2.436,26.638C-0.101,29.784 -3.281,31.357 -7.104,31.357C-9.201,31.357 -11.231,30.782 -13.192,29.632C-16.609,27.331 -18.469,25.066 -18.774,22.833C-19.078,20.601 -19.23,18.96 -19.23,17.911C-19.23,15.476 -18.824,12.989 -18.013,10.452C-16.795,6.833 -15.341,3.602 -13.649,0.761C-18.622,0.761 -23.561,1.894 -28.465,4.16C-31.679,5.682 -34.724,7.594 -37.599,9.894C-37.7,9.962 -37.801,9.995 -37.903,9.995C-38.309,9.995 -38.512,9.792 -38.512,9.386C-38.512,9.252 -38.444,9.133 -38.309,9.032C-35.366,6.664 -32.254,4.702 -28.973,3.145C-23.933,0.744 -19.027,-0.457 -14.258,-0.457L-12.989,-0.406C-8.355,-8.051 -1.844,-15.306 6.546,-22.174C19.333,-32.593 32.626,-37.802 46.428,-37.802C48.084,-37.802 49.708,-37.717 51.299,-37.548C54.985,-37.142 58.14,-35.865 60.762,-33.718C63.383,-31.569 65.1,-28.144 65.912,-23.443C66.148,-21.819 66.267,-20.127 66.267,-18.368C66.267,-13.396 65.286,-7.882 63.324,-1.827C60.651,6.325 56.44,14.562 50.69,22.884C45.446,30.494 39.096,37.429 31.637,43.687C24.178,49.946 16.229,54.656 7.789,57.819C-0.651,60.982 -9.116,62.563 -17.606,62.563C-21.903,62.563 -24.271,62.309 -24.71,61.801" style="fill:rgb(35,31,32);fill-rule:nonzero;"/>
            </g>
        </g>
        <g transform="matrix(8.33333,0,0,8.33333,0,0)">
            <g transform="matrix(1,0,0,1,348.867,331.177)">
                <path d="M0,-5.428C1.319,-6.713 1.979,-7.813 1.979,-8.726C1.979,-9.368 1.624,-9.691 0.913,-9.691C0.642,-9.691 0.287,-9.64 -0.152,-9.538C-2.216,-8.929 -4.043,-7.541 -5.632,-5.377C-6.715,-3.956 -7.273,-2.417 -7.307,-0.76C-4.871,-1.909 -2.436,-3.466 0,-5.428M-3.4,7.054C-5.802,6.547 -7.696,5.38 -9.083,3.553C-10.03,2.133 -10.503,0.678 -10.503,-0.811C-10.503,-2.975 -9.709,-5.106 -8.119,-7.204C-6.056,-9.944 -3.688,-11.702 -1.015,-12.481C0.236,-12.819 1.251,-12.989 2.029,-12.989C3.653,-12.989 4.465,-12.261 4.465,-10.807C4.465,-10.198 4.279,-9.488 3.907,-8.675C3.196,-7.187 2.147,-5.817 0.761,-4.566C-1.776,-2.468 -4.398,-0.793 -7.104,0.458C-6.969,0.831 -6.799,1.202 -6.596,1.574C-5.378,3.672 -4.051,4.999 -2.613,5.557C-1.176,6.115 0.304,6.394 1.827,6.394C2.401,6.394 2.994,6.361 3.603,6.293C4.888,6.191 6.19,5.989 7.509,5.684C11.128,4.906 14.596,3.773 17.911,2.285C21.226,0.797 23.864,-0.641 25.827,-2.029C25.928,-2.096 26.03,-2.13 26.131,-2.13C26.334,-2.13 26.478,-2.071 26.563,-1.952C26.646,-1.833 26.689,-1.706 26.689,-1.572C26.689,-1.368 26.621,-1.217 26.486,-1.115C24.49,0.34 21.784,1.828 18.368,3.35C13.327,5.617 8.389,6.987 3.552,7.46C2.875,7.528 2.198,7.561 1.522,7.561C-0.068,7.561 -1.708,7.392 -3.4,7.054" style="fill:rgb(35,31,32);fill-rule:nonzero;"/>
            </g>
        </g>
        <g transform="matrix(8.33333,0,0,8.33333,0,0)">
            <g transform="matrix(1,0,0,1,390.474,297.233)">
                <path d="M0,19.382C7.746,11.974 14.664,4.144 20.753,-4.11C24.033,-8.677 26.215,-12.719 27.298,-16.237C27.501,-17.015 27.603,-17.76 27.603,-18.47C27.603,-21.616 26.08,-23.189 23.036,-23.189C20.566,-22.986 17.657,-21.226 14.309,-17.911C9.81,-13.48 5.369,-7.654 0.989,-0.431C-3.392,6.791 -6.951,14.022 -9.691,21.26C-10.909,24.541 -11.857,27.586 -12.533,30.393C-9.218,27.856 -5.041,24.186 0,19.382M-10.047,45.717C-12.652,45.717 -14.495,44.499 -15.578,42.064C-16.118,40.575 -16.389,38.85 -16.389,36.888C-16.389,32.457 -15.121,26.892 -12.584,20.195C-9.742,12.753 -6.081,5.327 -1.599,-2.081C2.883,-9.489 7.476,-15.51 12.178,-20.144C16.169,-24.068 19.822,-26.132 23.138,-26.335C25.979,-26.199 27.653,-25.32 28.161,-23.696C28.668,-22.073 28.922,-20.685 28.922,-19.535C28.922,-15.51 26.503,-10.131 21.666,-3.4C15.543,4.888 8.592,12.753 0.812,20.195C-4.871,25.641 -9.438,29.615 -12.888,32.118C-13.294,34.013 -13.497,35.688 -13.497,37.142C-13.497,38.529 -13.312,39.713 -12.939,40.694C-11.958,42.994 -10.884,44.153 -9.717,44.169C-8.55,44.187 -7.899,44.195 -7.764,44.195C-4.516,44.195 -0.406,42.774 4.566,39.933L4.922,39.73C8.744,37.699 12.448,35.112 16.034,31.966C16.136,31.864 16.236,31.814 16.338,31.814C16.574,31.814 16.744,31.873 16.846,31.991C16.947,32.111 16.98,32.237 16.947,32.372C16.947,32.542 16.896,32.694 16.795,32.828C13.142,36.043 9.369,38.681 5.479,40.744C3.822,41.657 1.548,42.706 -1.345,43.89C-4.237,45.074 -6.394,45.684 -7.814,45.717L-10.047,45.717Z" style="fill:rgb(35,31,32);fill-rule:nonzero;"/>
            </g>
        </g>
        <g transform="matrix(8.33333,0,0,8.33333,0,0)">
            <g transform="matrix(1,0,0,1,417.061,331.177)">
                <path d="M0,-5.428C1.319,-6.713 1.979,-7.813 1.979,-8.726C1.979,-9.368 1.624,-9.691 0.914,-9.691C0.643,-9.691 0.287,-9.64 -0.152,-9.538C-2.216,-8.929 -4.042,-7.541 -5.632,-5.377C-6.715,-3.956 -7.273,-2.417 -7.307,-0.76C-4.871,-1.909 -2.436,-3.466 0,-5.428M-3.399,7.054C-5.802,6.547 -7.695,5.38 -9.082,3.553C-10.029,2.133 -10.503,0.678 -10.503,-0.811C-10.503,-2.975 -9.709,-5.106 -8.118,-7.204C-6.056,-9.944 -3.688,-11.702 -1.015,-12.481C0.236,-12.819 1.251,-12.989 2.03,-12.989C3.653,-12.989 4.466,-12.261 4.466,-10.807C4.466,-10.198 4.279,-9.488 3.907,-8.675C3.197,-7.187 2.148,-5.817 0.762,-4.566C-1.775,-2.468 -4.397,-0.793 -7.104,0.458C-6.969,0.831 -6.799,1.202 -6.596,1.574C-5.378,3.672 -4.051,4.999 -2.613,5.557C-1.176,6.115 0.305,6.394 1.827,6.394C2.401,6.394 2.994,6.361 3.603,6.293C4.888,6.191 6.19,5.989 7.51,5.684C11.129,4.906 14.596,3.773 17.912,2.285C21.227,0.797 23.865,-0.641 25.827,-2.029C25.929,-2.096 26.03,-2.13 26.132,-2.13C26.335,-2.13 26.479,-2.071 26.563,-1.952C26.646,-1.833 26.689,-1.706 26.689,-1.572C26.689,-1.368 26.621,-1.217 26.486,-1.115C24.49,0.34 21.784,1.828 18.368,3.35C13.327,5.617 8.389,6.987 3.552,7.46C2.875,7.528 2.199,7.561 1.522,7.561C-0.067,7.561 -1.708,7.392 -3.399,7.054" style="fill:rgb(35,31,32);fill-rule:nonzero;"/>
            </g>
        </g>
        <g transform="matrix(8.33333,0,0,8.33333,0,0)">
            <g transform="matrix(1,0,0,1,454.001,337.064)">
                <path d="M0,-21.108C-0.475,-21.546 -0.711,-22.072 -0.711,-22.681C-0.711,-23.324 -0.475,-23.865 0,-24.304C0.473,-24.744 1.031,-24.964 1.674,-24.964C2.316,-24.964 2.874,-24.744 3.349,-24.304C3.822,-23.865 4.059,-23.324 4.059,-22.681C4.059,-22.072 3.822,-21.546 3.349,-21.108C2.874,-20.668 2.316,-20.449 1.674,-20.449C1.031,-20.449 0.473,-20.668 0,-21.108M-12.432,-1.725C-12.432,-5.277 -11.197,-8.845 -8.728,-12.431C-7.477,-14.258 -6.038,-15.594 -4.415,-16.44C-4.179,-16.575 -3.941,-16.643 -3.704,-16.643C-3.096,-16.643 -2.639,-16.355 -2.334,-15.78C-2.232,-15.544 -2.183,-15.29 -2.183,-15.019C-2.183,-14.444 -2.47,-14.004 -3.045,-13.7C-4.263,-13.023 -5.379,-11.941 -6.394,-10.453C-7.408,-8.963 -8.187,-7.339 -8.728,-5.582C-9.168,-4.194 -9.388,-2.943 -9.388,-1.827L-9.388,-1.42C-9.388,-0.609 -9.151,0.102 -8.677,0.71C-7.865,1.353 -6.767,1.674 -5.379,1.674C-3.856,1.674 -2.03,1.353 0.102,0.71C1.725,0.203 3.01,-0.254 3.957,-0.66C7.813,-2.351 11.551,-4.753 15.171,-7.865C15.272,-7.966 15.374,-8.017 15.476,-8.017C15.915,-8.017 16.135,-7.814 16.135,-7.408C16.135,-7.272 16.067,-7.137 15.933,-7.003C12.211,-3.788 8.372,-1.319 4.414,0.406C-0.627,2.706 -4.651,3.856 -7.662,3.856C-10.842,3.856 -12.432,1.996 -12.432,-1.725" style="fill:rgb(35,31,32);fill-rule:nonzero;"/>
            </g>
        </g>
        <g transform="matrix(8.33333,0,0,8.33333,0,0)">
            <g transform="matrix(1,0,0,1,467.903,279.982)">
                <path d="M0,58.705C0,53.463 1.522,46.951 4.566,39.17C8.321,29.665 13.361,20.413 19.688,11.415C10.96,8.033 2.486,5.31 -5.733,3.246C-13.953,1.183 -22.038,0.151 -29.987,0.151C-39.459,0.151 -48.88,1.977 -58.25,5.631L-58.402,5.631C-58.808,5.631 -59.011,5.445 -59.011,5.073C-59.011,4.768 -58.893,4.6 -58.656,4.565C-49.083,0.777 -41.844,-1.219 -36.939,-1.422C-32.034,-1.625 -28.973,-1.727 -27.755,-1.727C-20.38,-1.727 -13.022,-0.83 -5.683,0.963C2.842,3.06 11.771,5.902 21.108,9.487C29.227,-1.506 36.854,-8.153 43.992,-10.454L44.397,-10.504C45.176,-10.504 45.683,-10.132 45.92,-9.388C45.953,-9.253 45.971,-9.101 45.971,-8.932C45.971,-8.221 45.599,-7.747 44.854,-7.511C38.461,-5.482 31.526,0.557 24.051,10.603L26.486,11.517C31.695,13.58 37.082,15.433 42.647,17.073C48.211,18.714 52.397,19.534 55.205,19.534L59.519,19.534C65.031,19.534 70.359,18.13 75.502,15.322L75.806,15.271C75.873,15.271 75.949,15.289 76.034,15.322C76.118,15.356 76.194,15.433 76.263,15.551C76.33,15.669 76.364,15.779 76.364,15.88C76.364,16.083 76.263,16.236 76.06,16.337C70.241,19.483 65.802,21.073 62.74,21.107C59.679,21.141 58.08,21.158 57.945,21.158C52.06,21.158 46.14,20.287 40.187,18.544C34.232,16.803 28.381,14.798 22.63,12.532C16.305,21.462 11.247,30.714 7.459,40.286C4.549,47.593 3.095,53.496 3.095,57.995C3.095,64.084 5.919,67.128 11.568,67.128C12.482,67.128 13.463,67.026 14.512,66.824C18.029,66.113 21.445,64.862 24.762,63.069C30.343,60.227 36.871,54.917 44.347,47.137C44.448,47.035 44.583,46.984 44.753,46.984C45.159,46.984 45.362,47.171 45.362,47.542C45.362,47.678 45.312,47.813 45.21,47.948C37.632,55.831 30.985,61.209 25.269,64.084C19.01,67.501 13.632,69.209 9.133,69.209C3.044,69.209 0,65.707 0,58.705" style="fill:rgb(35,31,32);fill-rule:nonzero;"/>
            </g>
        </g>
        <g transform="matrix(8.33333,0,0,8.33333,0,0)">
            <g transform="matrix(1,0,0,1,520.47,331.177)">
                <path d="M0,-5.428C1.319,-6.713 1.979,-7.813 1.979,-8.726C1.979,-9.368 1.624,-9.691 0.914,-9.691C0.643,-9.691 0.287,-9.64 -0.152,-9.538C-2.216,-8.929 -4.042,-7.541 -5.632,-5.377C-6.715,-3.956 -7.273,-2.417 -7.307,-0.76C-4.871,-1.909 -2.436,-3.466 0,-5.428M-3.399,7.054C-5.802,6.547 -7.695,5.38 -9.082,3.553C-10.029,2.133 -10.503,0.678 -10.503,-0.811C-10.503,-2.975 -9.709,-5.106 -8.118,-7.204C-6.056,-9.944 -3.688,-11.702 -1.015,-12.481C0.236,-12.819 1.251,-12.989 2.03,-12.989C3.653,-12.989 4.466,-12.261 4.466,-10.807C4.466,-10.198 4.279,-9.488 3.907,-8.675C3.197,-7.187 2.148,-5.817 0.762,-4.566C-1.775,-2.468 -4.397,-0.793 -7.104,0.458C-6.969,0.831 -6.799,1.202 -6.596,1.574C-5.378,3.672 -4.051,4.999 -2.613,5.557C-1.176,6.115 0.305,6.394 1.827,6.394C2.401,6.394 2.994,6.361 3.603,6.293C4.888,6.191 6.19,5.989 7.51,5.684C11.129,4.906 14.596,3.773 17.912,2.285C21.227,0.797 23.865,-0.641 25.827,-2.029C25.929,-2.096 26.03,-2.13 26.132,-2.13C26.335,-2.13 26.479,-2.071 26.563,-1.952C26.646,-1.833 26.689,-1.706 26.689,-1.572C26.689,-1.368 26.621,-1.217 26.486,-1.115C24.49,0.34 21.784,1.828 18.368,3.35C13.327,5.617 8.389,6.987 3.552,7.46C2.875,7.528 2.199,7.561 1.522,7.561C-0.067,7.561 -1.708,7.392 -3.399,7.054" style="fill:rgb(35,31,32);fill-rule:nonzero;"/>
            </g>
        </g>
    </g>
</svg>
