<?xml version="1.0" encoding="iso-8859-1"?>
<!-- Uploaded to: SVG Repo, www.svgrepo.com, Generator: SVG Repo Mixer Tools -->
<svg height="800px" width="800px" version="1.1" id="Capa_1" xmlns="http://www.w3.org/2000/svg" xmlns:xlink="http://www.w3.org/1999/xlink" 
	 viewBox="0 0 412.983 412.983" xml:space="preserve">
<g>
	<g>
		<path style="fill:#F24646;" d="M247.275,250.3c49.182-4.008,90.646-19.564,113.762-42.68c22.592-22.592,22.592-59.351,0-81.942
			c-8.196-8.196-18.366-13.542-29.173-15.789c-6.808,0.293-13.639,1.77-20.196,4.508c-3.743,1.562-8.058,0.71-10.925-2.156
			c-0.051-0.051-0.09-0.111-0.14-0.163c-0.969,0.346-1.935,0.71-2.893,1.11c-3.695,1.543-7.955,0.701-10.785-2.129
			c-2.831-2.831-3.672-7.091-2.129-10.785c9.098-21.785,4.196-46.642-12.489-63.328c-9.636-9.636-21.851-15.147-34.444-16.563
			c-12.771,1.427-25.161,7.011-34.933,16.782c-23.415,23.415-39.173,65.416-43.234,115.234c-2.664,32.686,0.641,61.268,6.087,77.214
			c0.218,0.486,0.395,0.987,0.531,1.496c1.702,4.615,3.592,8.028,5.561,9.997c1.971,1.971,5.386,3.862,10.006,5.566
			c0.504,0.135,1,0.31,1.482,0.525c0.835,0.285,1.713,0.563,2.616,0.836C201.979,250.976,223.525,252.236,247.275,250.3z
			 M220.606,54.844c13.138-13.136,34.513-13.137,47.651,0c3.905,3.905,3.905,10.237,0,14.143c-1.953,1.952-4.512,2.929-7.071,2.929
			c-2.559,0-5.119-0.976-7.071-2.929c-5.339-5.34-14.027-5.339-19.366,0c-3.905,3.904-10.237,3.904-14.143,0
			C216.702,65.082,216.702,58.75,220.606,54.844z"/>
		<path style="fill:#D4B783;" d="M153.899,250.599L21.733,382.765c-2.34,2.339-2.34,6.146,0,8.485c2.339,2.34,6.146,2.339,8.485,0
			l132.166-132.166c-1.736-1.199-3.294-2.477-4.653-3.835C156.374,253.89,155.097,252.334,153.899,250.599z"/>
	</g>
	<g>
		<path d="M389.971,112.894c-18.097-18.097-43.266-25.987-67.742-22.14c3.848-24.472-4.044-49.646-22.14-67.742
			c-30.684-30.684-80.607-30.684-111.29,0c-26.716,26.716-44.585,73.279-49.025,127.751c-2.212,27.136-0.919,57.958,5.486,80.191
			L7.603,368.611c-10.137,10.137-10.137,26.632,0,36.77c5.069,5.068,11.727,7.603,18.385,7.603c6.658,0,13.316-2.535,18.385-7.603
			l137.657-137.657c22.231,6.404,53.05,7.696,80.187,5.486c54.474-4.439,101.039-22.309,127.755-49.025
			C420.654,193.502,420.654,143.577,389.971,112.894z M30.231,391.238c-2.339,2.339-6.146,2.34-8.485,0
			c-2.34-2.339-2.34-6.146,0-8.485l132.166-132.167c1.198,1.735,2.475,3.291,3.832,4.65c1.358,1.359,2.917,2.637,4.653,3.835
			L30.231,391.238z M375.829,210.042c-23.415,23.415-65.418,39.173-115.238,43.233c-30.979,2.525-58.26-0.314-74.601-5.254
			c-0.903-0.273-1.781-0.551-2.616-0.836c-0.482-0.215-0.978-0.391-1.482-0.525c-4.62-1.704-8.035-3.595-10.006-5.566
			c-1.969-1.969-3.859-5.382-5.562-9.997c-0.136-0.509-0.313-1.009-0.531-1.496c-5.446-15.946-8.751-44.528-6.087-77.214
			c4.061-49.818,19.819-91.819,43.234-115.234c9.772-9.771,22.162-15.356,34.933-16.782c17.137-1.914,34.96,3.669,48.073,16.782
			c16.902,16.902,21.868,42.082,12.651,64.149c-1.535,3.675-0.729,7.896,2.017,10.763c0.05,0.052,0.089,0.111,0.14,0.162
			c2.867,2.866,7.182,3.719,10.925,2.156c6.557-2.739,13.388-4.215,20.196-4.508c16.103-0.694,32.073,5.279,43.953,17.16
			C398.714,149.921,398.714,187.157,375.829,210.042z"/>
		<path d="M234.761,68.975c5.339-5.339,14.027-5.34,19.366,0c1.953,1.952,4.512,2.929,7.071,2.929c2.559,0,5.119-0.976,7.071-2.929
			c3.905-3.905,3.905-10.237,0-14.143c-13.138-13.137-34.513-13.136-47.651,0c-3.905,3.905-3.905,10.237,0,14.143
			C224.524,72.879,230.856,72.879,234.761,68.975z"/>
	</g>
</g>
</svg>